<svg xmlns="http://www.w3.org/2000/svg" width="18" height="18" viewBox="0 0 18 18">
  <defs>
    <filter id="logo-github-a">
      <feColorMatrix in="SourceGraphic" values="0 0 0 0 1.000000 0 0 0 0 1.000000 0 0 0 0 1.000000 0 0 0 1.000000 0"/>
    </filter>
  </defs>
  <g fill="none" fill-rule="evenodd" filter="url(#logo-github-a)" transform="translate(-213 -2)">
    <path fill="#000" fill-rule="nonzero" d="M8.96,0 C4.012,0 0,4.116 0,9.188 C0,13.248 2.568,16.688 6.128,17.904 C6.17793385,17.9148463 6.22890218,17.9202114 6.28,17.9200075 C6.612,17.9200075 6.74,17.676 6.74,17.464 C6.74,17.244 6.732,16.668 6.728,15.9 C6.43161626,15.9694813 6.12841042,16.005705 5.824,16.008 C4.1,16.008 3.708,14.668 3.708,14.668 C3.3,13.608 2.712,13.324 2.712,13.324 C1.932,12.776 2.708,12.76 2.768,12.76 L2.772,12.76 C3.672,12.84 4.144,13.712 4.144,13.712 C4.592,14.496 5.192,14.716 5.728,14.716 C6.08241434,14.7089128 6.43134615,14.6271319 6.752,14.476 C6.832,13.884 7.064,13.48 7.32,13.248 C5.332,13.016 3.24,12.228 3.24,8.708 C3.24,7.704 3.588,6.884 4.16,6.244 C4.068,6.012 3.76,5.076 4.248,3.812 C4.31345837,3.79633676 4.3807362,3.78960898 4.448,3.792 C4.772,3.792 5.504,3.916 6.712,4.756 C8.17981579,4.34532456 9.73218421,4.34532456 11.2,4.756 C12.408,3.916 13.14,3.792 13.464,3.792 C13.5312638,3.78960898 13.5985416,3.79633676 13.664,3.812 C14.152,5.076 13.844,6.012 13.752,6.244 C14.324,6.888 14.672,7.708 14.672,8.708 C14.672,12.236 12.576,13.012 10.58,13.24 C10.9,13.524 11.188,14.084 11.188,14.94 C11.188,16.168 11.176,17.16 11.176,17.46 C11.176,17.676 11.3,17.9200075 11.632,17.9200075 C11.6857442,17.9202361 11.7393668,17.9148739 11.792,17.904 C15.356,16.688 17.92,13.244 17.92,9.188 C17.92,4.116 13.908,0 8.96,0 Z" transform="translate(213 2)"/>
  </g>
</svg>
