<svg xmlns="http://www.w3.org/2000/svg" width="18" height="18" viewBox="0 0 18 18">
  <path fill="#FFF" fill-rule="evenodd" d="M192,2 C196.970563,2 201,6.02943725 201,11 C201,15.9705627 196.970563,20 192,20 C187.029437,20 183,15.9705627 183,11 C183,6.02943725 187.029437,2 192,2 Z M194.47544,6.49999593 C193.16936,6.49999593 192.1124,7.5416 192.1124,8.8256 C192.111474,9.00419956 192.13194,9.18226739 192.17336,9.356 C190.279617,9.267222 188.510932,8.38462155 187.30136,6.9248 C187.091498,7.27858884 186.980512,7.68225056 186.98,8.0936 C186.98,8.9 187.40072,9.6128 188.036,10.0304 C187.659615,10.0214674 187.290942,9.92184831 186.96128,9.74 L186.96128,9.7688 C186.96128,10.8968 187.77728,11.8352 188.85728,12.0488 C188.654188,12.1029397 188.444904,12.1303709 188.23472,12.1304 C188.085579,12.1306601 187.936777,12.1161898 187.79048,12.0872 C188.09072,13.0112 188.96456,13.6832 189.99968,13.7024 C189.158571,14.3506219 188.125908,14.7009774 187.064,14.6984 C186.875508,14.6981197 186.687192,14.6869008 186.5,14.6648 C187.580283,15.3546121 188.836027,15.7194892 190.11776,15.7160248 C194.4704,15.7160248 196.84832,12.1712 196.84832,9.0968 C196.84832,8.996 196.84568,8.8952 196.84088,8.7968 C197.302421,8.46849419 197.701713,8.06050668 198.02,7.592 C197.587869,7.77976459 197.130653,7.90346778 196.6628,7.9592 C197.15448,7.67129099 197.524236,7.21389599 197.70272,6.6728 C197.237863,6.94462199 196.730134,7.1353451 196.20128,7.2368 C195.751232,6.76513748 195.127366,6.4987951 194.47544,6.49999593 Z" transform="translate(-183 -2)"/>
</svg>
