<svg xmlns="http://www.w3.org/2000/svg" width="146" height="146" viewBox="0 0 146 146">
  <path fill="#25A7FB" fill-rule="evenodd" d="M73,146 C32.6832133,146 1.42108547e-14,113.316787 1.42108547e-14,73 C1.42108547e-14,32.6832133 32.6832133,0 73,0 C113.316787,0 146,32.6832133 146,73 C146,113.316787 113.316787,146 73,146 Z M74,32 C61.4767206,32 50.600133,39.1750235 45.1831154,49.6750906 C32.1398981,51.0749206 22,62.2314936 22,75.7500559 C22,90.2312251 33.6567162,102 48,102 L104.333703,102 C116.293605,102 126,92.2002954 126,80.124972 C126,68.5750324 117.116729,59.2125509 105.850078,58.4249228 C102.903319,43.3311043 89.773224,32 74,32 Z"/>
</svg>
