<svg xmlns="http://www.w3.org/2000/svg" width="146" height="146" viewBox="0 0 146 146">
  <path fill="#25A7FB" fill-rule="evenodd" d="M73,146 C32.6832133,146 0,113.316787 0,73 C0,32.6832133 32.6832133,0 73,0 C113.316787,0 146,32.6832133 146,73 C146,113.316787 113.316787,146 73,146 Z M111.75518,50.898132 C113.41494,49.1714617 113.41494,46.3818247 111.75518,44.655675 L101.793121,34.2946123 C100.132861,32.5684626 97.4510181,32.5684626 95.7902577,34.2946123 L88,42.3975214 L103.964422,59 L111.75518,50.898132 Z M34,96.2883205 L34,113 L50.2056444,113 L98,63.7116795 L81.7943556,47 L34,96.2883205 Z"/>
</svg>
